<svg xmlns="http://www.w3.org/2000/svg" viewBox="0 0 512 512">
  <rect width="512" height="512" rx="112" fill="#1E3A5F"/>
  <circle cx="256" cy="256" r="166" fill="#F7F4EE"/>
  <path fill="#C47A3A" d="M229 143h54v78h78v54h-78v94h-54v-94h-78v-54h78z"/>
  <path fill="#1E3A5F" d="M154 357c35 28 67 42 101 42 35 0 68-14 104-42 10-8 25-6 33 4s6 25-4 33c-44 35-88 52-133 52s-88-17-131-52c-10-8-12-23-4-33s23-12 34-4z"/>
  <path fill="#F7F4EE" d="M206 297c12-13 29-21 50-21s38 8 50 21c-15 17-32 25-50 25s-35-8-50-25z"/>
</svg>
